<?xml version="1.0" encoding="UTF-8" standalone="no"?>
<svg width="128px" height="61px" viewBox="0 0 128 61" version="1.1" xmlns="http://www.w3.org/2000/svg" xmlns:xlink="http://www.w3.org/1999/xlink" xmlns:sketch="http://www.bohemiancoding.com/sketch/ns">
    <!-- Generator: Sketch 3.3.2 (12043) - http://www.bohemiancoding.com/sketch -->
    <title>logo</title>
    <desc>Created with Sketch.</desc>
    <defs></defs>
    <g id="Page-1" stroke="none" stroke-width="1" fill="none" fill-rule="evenodd" sketch:type="MSPage">
        <g id="Index" sketch:type="MSArtboardGroup" transform="translate(-54.000000, -137.000000)" fill="#FDFDFD">
            <g id="hero" sketch:type="MSLayerGroup">
                <g id="logo" transform="translate(54.000000, 137.000000)" sketch:type="MSShapeGroup">
                    <path d="M112.770625,41.115528 C112.770625,40.7633267 113.034986,40.4987275 113.377745,40.4987275 C113.739986,40.4987275 113.994546,40.7633267 113.994546,41.115528 C113.994546,41.4976072 113.739986,41.7520479 113.367946,41.7520479 C113.034986,41.7520479 112.770625,41.4976072 112.770625,41.115528" id="Fill-1"></path>
                    <path d="M119.301826,39.4020872 C119.301826,40.9980479 118.126786,41.7520479 117.128026,41.7520479 C115.727587,41.7520479 114.924587,40.665088 114.924587,39.5684476 C114.924587,37.942848 116.197866,37.198648 117.147626,37.198648 C118.381346,37.198648 119.301826,38.1876082 119.301826,39.4020872 L119.301826,39.4020872 Z M115.943186,39.2552072 C115.943186,40.4694472 116.462106,41.3801271 117.235587,41.3801271 C117.793826,41.3801271 118.283586,40.9784479 118.283586,39.6368084 C118.283586,38.4522073 117.832907,37.5708077 117.010546,37.5708077 C116.462106,37.5708077 115.943186,38.1388474 115.943186,39.2552072 L115.943186,39.2552072 Z" id="Fill-2"></path>
                    <path d="M121.445988,38.2367275 C121.779067,37.6979683 122.180507,37.198648 122.630947,37.198648 C122.993188,37.198648 123.228148,37.4728081 123.228148,37.7274877 C123.228148,37.9624479 123.091068,38.1780472 122.885507,38.2660079 C122.768027,38.3150078 122.670028,38.3052078 122.611347,38.2367275 C122.464348,38.0996475 122.346987,38.0406087 122.180507,38.0406087 C121.935628,38.0406087 121.622268,38.3150078 121.426507,38.853528 L121.426507,40.5866882 C121.426507,41.2134082 121.475507,41.262408 122.239068,41.3212078 L122.239068,41.6345678 L119.869388,41.6345678 L119.869388,41.3212078 C120.486308,41.2723275 120.555027,41.2134082 120.555027,40.5866882 L120.555027,38.5694484 C120.555027,37.952648 120.506027,37.9233676 119.957588,37.8449678 L119.957588,37.5708077 C120.476508,37.492408 120.936867,37.3750474 121.426507,37.1789285 L121.426507,38.2367275 L121.445988,38.2367275" id="Fill-3"></path>
                    <path d="M127.977308,37.4043278 C127.898908,37.5610078 127.693228,37.8449678 127.546348,37.9329285 L126.988348,37.8937287 C127.144789,38.0996475 127.262388,38.393288 127.262388,38.7263674 C127.262388,39.7740079 126.371308,40.2832478 125.480109,40.2832478 C125.323548,40.2832478 125.137468,40.2635283 124.990588,40.2343674 C124.853508,40.3223281 124.716309,40.4888081 124.716309,40.6162077 C124.716309,40.7926071 124.883028,40.9882479 125.333109,40.9882479 C125.705389,40.9882479 126.038348,40.9687675 126.361628,40.9687675 C126.988348,40.9687675 127.810828,41.1645278 127.810828,42.1438076 C127.810828,43.1719677 126.606388,44.0925671 125.294148,44.0925671 C124.158069,44.0925671 123.560749,43.4463668 123.551069,42.8878881 C123.551069,42.6628474 123.648829,42.4767675 123.805748,42.330007 C124.011309,42.1338881 124.354188,41.8696475 124.579468,41.703048 C124.236588,41.5956069 124.001628,41.3801271 123.864429,41.1742083 C123.776229,41.0274478 123.737268,40.8413679 123.746829,40.7434877 C124.158069,40.5866882 124.471549,40.3125281 124.628348,40.1266873 C124.177669,39.9404879 123.766548,39.4900479 123.766548,38.8242476 C123.766548,37.7176878 124.784789,37.198648 125.568428,37.198648 L125.578108,37.198648 C125.920749,37.198648 126.244148,37.2867282 126.557269,37.4530886 C127.037109,37.4238082 127.526748,37.3651279 127.918508,37.3161281 L127.977308,37.4043278 L127.977308,37.4043278 Z M124.804509,41.9382473 C124.569548,42.1438076 124.402949,42.3886873 124.402949,42.6433669 C124.402949,43.1524873 124.951389,43.5538079 125.695589,43.5538079 C126.576869,43.5538079 127.066628,43.0935679 127.066628,42.5159674 C127.066628,42.183127 126.890229,41.9481668 126.616188,41.8499281 C126.361628,41.7520479 126.087348,41.7324479 125.675989,41.7324479 C125.206068,41.7324479 124.980908,41.7912478 124.804509,41.9382473 L124.804509,41.9382473 Z M124.696828,38.6772481 C124.696828,39.3921677 125.059069,39.9306879 125.587908,39.9306879 C126.018868,39.9208879 126.371308,39.5292478 126.371308,38.7948477 C126.371308,38.0799281 126.028668,37.5510883 125.480109,37.5510883 C125.078669,37.5510883 124.696828,37.952648 124.696828,38.6772481 L124.696828,38.6772481 Z" id="Fill-4"></path>
                    <path d="M60.7590864,41.6638482 C60.5762333,42.2908071 60.2368198,43.2960209 60.0147669,43.7400073 C59.662207,43.8313143 58.4611133,44.0925671 57.547087,44.0925671 C54.1394468,44.0925671 52.6768613,41.8468207 52.6768613,39.7707811 C52.6768613,37.0418485 54.7922203,35.2140349 57.8474202,35.2140349 C58.9310338,35.2140349 59.8711137,35.5012218 60.2368198,35.5664752 C60.3541804,36.2976484 60.4457264,36.8722612 60.5241262,37.6947415 L60.0016206,37.7991948 C59.5969536,36.2847412 58.7092199,35.8145817 57.547087,35.8145817 C55.5624739,35.8145817 54.4657141,37.5772614 54.4657141,39.5095283 C54.4657141,41.8989279 55.8236072,43.4658472 57.6646867,43.4658472 C58.8265805,43.4658472 59.5707805,42.7998079 60.2497271,41.4420342 L60.7590864,41.6638482" id="Fill-5"></path>
                    <path d="M70.5767425,35.9061278 C69.8716228,35.9452081 69.5585018,36.1149149 69.4930094,36.6632351 C69.454168,37.0680216 69.3885561,37.6686879 69.3885561,38.8175549 L69.3885561,44.0142869 L68.7619556,44.0142869 L63.330383,37.4597813 L63.3044489,37.4597813 L63.3044489,40.4627545 C63.3044489,41.5856874 63.3564365,42.1862343 63.3956364,42.5648477 C63.4608899,43.1523677 63.7350499,43.3482476 64.6751298,43.4004743 L64.6751298,43.8965678 L61.4111428,43.8965678 L61.4111428,43.4004743 C62.1421966,43.3482476 62.4555565,43.1653945 62.52081,42.6039281 C62.5731561,42.1862343 62.6384096,41.5856874 62.6384096,40.4627545 L62.6384096,37.7210341 C62.6384096,36.8459686 62.6252633,36.6762619 62.3772763,36.3760482 C62.1294088,36.0496614 61.8158098,35.9583544 61.2414361,35.9061278 L61.2414361,35.4099147 L63.5524359,35.4099147 L68.6705291,41.3896881 L68.709729,41.3896881 L68.709729,38.8175549 C68.709729,37.6686879 68.6442365,37.0680216 68.6052757,36.6895277 C68.5397832,36.141088 68.2399281,35.9583544 67.3125164,35.9061278 L67.3125164,35.4099147 L70.5767425,35.4099147 L70.5767425,35.9061278" id="Fill-6"></path>
                    <path d="M74.94956,35.4099147 C75.9419861,35.4099147 76.6863056,35.5535679 77.2214795,35.9321813 C77.7959728,36.3369678 78.1486521,36.9767145 78.1486521,37.8383947 C78.1486521,39.5880476 76.8557734,40.3973815 75.5112655,40.554181 C75.3153857,40.5801151 75.0800669,40.5801151 74.9365332,40.5801151 L74.0095996,40.3452744 L74.0095996,42.1600612 C74.0095996,43.2437943 74.114053,43.322194 75.2889736,43.4004743 L75.2889736,43.8965678 L71.3459205,43.8965678 L71.3459205,43.4004743 C72.3646391,43.322194 72.4819997,43.230887 72.4819997,42.1471539 L72.4819997,37.1725944 C72.4819997,36.0626882 72.3646391,35.9974348 71.4245592,35.919035 L71.4245592,35.4099147 L74.94956,35.4099147 L74.94956,35.4099147 Z M74.0095996,39.7968347 C74.1662796,39.8622077 74.4796396,39.9403684 74.8190531,39.9403684 C75.445773,39.9403684 76.4642527,39.5488477 76.4642527,37.8906213 C76.4642527,36.4543284 75.5895458,35.9452081 74.7145998,35.9452081 C74.4145056,35.9452081 74.2185063,36.0103421 74.1403456,36.0888613 C74.0487995,36.1801683 74.0095996,36.3106752 74.0095996,36.5587818 L74.0095996,39.7968347 L74.0095996,39.7968347 Z" id="Fill-7"></path>
                    <path d="M84.6370677,40.9066213 C84.6370677,43.0218608 83.0960824,44.0533673 81.6468823,44.0533673 C79.6623887,44.0533673 78.6178555,42.577994 78.6178555,41.1285548 C78.6178555,39.0005275 80.3021354,37.9558748 81.6860821,37.9558748 C83.4488813,37.9558748 84.6370677,39.3007412 84.6370677,40.9066213 L84.6370677,40.9066213 Z M80.2891086,40.6845684 C80.2891086,42.2908071 80.8766286,43.5050471 81.7905354,43.5050471 C82.3909628,43.5050471 82.9658146,43.1000216 82.9658146,41.2591812 C82.9658146,39.5618745 82.4564552,38.4912877 81.5034681,38.4912877 C80.8896554,38.4912877 80.2891086,39.2093146 80.2891086,40.6845684 L80.2891086,40.6845684 Z" id="Fill-8"></path>
                    <path d="M85.1849098,43.8965678 L85.1849098,43.4266473 C85.9810975,43.322194 86.072524,43.2569406 86.072524,42.4603944 L86.072524,36.5197014 C86.072524,35.7231552 86.0072706,35.6971016 85.2368975,35.6187019 L85.2368975,35.1878618 C86.0072706,35.0965548 86.9210579,34.9006749 87.5477778,34.7180609 L87.5477778,42.4603944 C87.5477778,43.2828746 87.6393238,43.3482476 88.4621627,43.4266473 L88.4621627,43.8965678 L85.1849098,43.8965678" id="Fill-9"></path>
                    <path d="M89.0227925,43.8965678 L89.0227925,43.4266473 C89.806312,43.3482476 89.897619,43.2828746 89.897619,42.3821141 L89.897619,39.8489418 C89.897619,38.9872617 89.832246,38.9481813 89.1274849,38.843728 L89.1274849,38.4257952 C89.9368189,38.3214614 90.7200993,38.1517546 91.3731118,37.942848 L91.3731118,42.3821141 C91.3731118,43.2569406 91.4383652,43.3482476 92.2478187,43.4266473 L92.2478187,43.8965678 L89.0227925,43.8965678 L89.0227925,43.8965678 Z M89.6625393,36.2193682 C89.6625393,35.7231552 90.0675648,35.3445418 90.5374852,35.3445418 C91.0336982,35.3445418 91.4123116,35.7231552 91.4123116,36.2193682 C91.4123116,36.6895277 91.0336982,37.0811679 90.5242194,37.0811679 C90.0675648,37.0811679 89.6625393,36.6895277 89.6625393,36.2193682 L89.6625393,36.2193682 Z" id="Fill-10"></path>
                    <path d="M95.550647,43.8965678 C95.3156868,44.0010211 95.0938729,44.0533673 94.9891806,44.0533673 C94.0492202,44.0533673 93.4876342,43.5571542 93.4876342,42.421314 L93.4876342,38.7653283 L92.6259541,38.7653283 L92.5475543,38.595741 L92.939314,38.1126743 L93.4876342,38.1126743 L93.4876342,37.198409 L94.7671276,36.2193682 L94.963127,36.2847412 L94.963127,38.1126743 L96.3209006,38.1126743 C96.4778197,38.2563275 96.4515271,38.661114 96.2426204,38.7653283 L94.963127,38.7653283 L94.963127,41.9512741 C94.963127,42.9827805 95.4332864,43.1132874 95.7074465,43.1132874 C95.955314,43.1132874 96.2165668,43.0348876 96.425354,42.9434611 L96.5691267,43.413501 L95.550647,43.8965678" id="Fill-11"></path>
                    <path d="M97.0778884,43.8965678 L97.0778884,43.4266473 C97.8612883,43.3482476 97.9525954,43.2828746 97.9525954,42.3821141 L97.9525954,39.8489418 C97.9525954,38.9872617 97.8873419,38.9481813 97.1823418,38.843728 L97.1823418,38.4257952 C97.9917952,38.3214614 98.7753147,38.1517546 99.4279686,37.942848 L99.4279686,42.3821141 C99.4279686,43.2569406 99.4934611,43.3482476 100.302915,43.4266473 L100.302915,43.8965678 L97.0778884,43.8965678 L97.0778884,43.8965678 Z M97.7176352,36.2193682 C97.7176352,35.7231552 98.1225412,35.3445418 98.5923421,35.3445418 C99.0886746,35.3445418 99.4671685,35.7231552 99.4671685,36.2193682 C99.4671685,36.6895277 99.0886746,37.0811679 98.5793153,37.0811679 C98.1225412,37.0811679 97.7176352,36.6895277 97.7176352,36.2193682 L97.7176352,36.2193682 Z" id="Fill-12"></path>
                    <path d="M106.047369,42.669301 C105.433557,43.4919008 104.55873,44.0533673 103.77545,44.0533673 C102.01277,44.0533673 100.968237,42.7085009 100.968237,41.272208 C100.968237,40.2929282 101.451304,39.3791409 102.300076,38.7523015 C103.109649,38.1517546 103.958183,37.9558748 104.454277,37.9558748 L104.467423,37.9558748 C104.989809,37.9558748 105.407622,38.1126743 105.616529,38.2822615 C105.812409,38.4257952 105.85137,38.5694484 105.85137,38.7392747 C105.85137,39.1048613 105.525103,39.4443944 105.316196,39.4443944 C105.22465,39.4443944 105.159396,39.3921677 105.041797,39.3007412 C104.545703,38.8568743 104.114863,38.6739017 103.73625,38.6739017 C103.083237,38.6739017 102.44373,39.2746876 102.44373,40.619554 C102.44373,42.355941 103.684023,42.9304343 104.297716,42.9304343 C104.846036,42.9304343 105.237677,42.7867811 105.760063,42.3298875 L106.047369,42.669301" id="Fill-13"></path>
                    <path d="M110.146385,39.7968347 C109.806852,38.9743544 109.389158,38.4912877 108.788492,38.4912877 C108.396732,38.4912877 108.057319,38.8046477 108.057319,39.248634 C108.057319,39.6793546 108.409879,39.9796878 109.088586,40.2538478 C110.133478,40.6977147 110.851385,41.1547279 110.851385,42.1600612 C110.851385,43.4266473 109.637145,44.0533673 108.527478,44.0533673 C107.835505,44.0533673 107.156439,43.8052608 106.895186,43.5963541 C106.816906,43.3874475 106.699426,42.4865675 106.686279,41.8989279 L107.130505,41.8468207 C107.391399,42.6824473 107.978919,43.5179544 108.775585,43.5179544 C109.206305,43.5179544 109.558865,43.1915676 109.558865,42.7607275 C109.558865,42.3167412 109.297493,42.016408 108.553532,41.6638482 C107.874466,41.3506077 106.856225,40.867541 106.856225,39.7577543 C106.856225,38.7783551 107.678825,37.9558748 109.010545,37.9558748 C109.611092,37.9558748 109.963532,38.0733549 110.263865,38.190835 C110.394372,38.4912877 110.551052,39.3921677 110.590491,39.6793546 L110.146385,39.7968347" id="Fill-14"></path>
                    <path d="M37.5777394,16.6857607 C37.1341116,15.2228166 36.7140276,13.8028968 36.5811305,13.076504 C36.43437,12.2748188 36.4065237,10.9234988 36.4016237,10.2942691 C36.394692,9.36004533 36.4103481,8.2838415 36.4720162,6.94303852 C36.5311745,5.6564939 36.7673299,3.49679601 37.6158637,2.18861975 C37.923009,1.7154725 38.2655299,1.82028436 38.514712,1.95640831 C39.0045909,2.22375622 39.2959607,2.59280869 39.253295,2.98779521 C39.1744172,3.71621969 38.8382305,4.93834744 38.7638941,5.196971 C38.4014148,6.46331812 38.3006664,7.75978222 38.3383126,9.12006562 C38.37811,10.5604219 38.4506537,11.5397017 38.7463259,12.9891409 C39.3321728,15.858978 40.0345437,18.2132411 40.8077851,19.7792043 C41.0066527,20.1821981 41.2659934,20.8793105 41.1205475,21.1835876 C41.0225478,21.3889089 40.9435505,21.4571501 40.4383741,21.5276621 C39.901288,21.6029545 39.5835061,21.5525205 39.1824245,21.1308829 C38.7123845,20.636343 38.2547738,18.9183608 37.5777394,16.6857607" id="Fill-15"></path>
                    <path d="M50.5816998,21.5482181 C50.5959217,19.3901934 51.8139861,16.5502343 52.0504999,14.826635 C52.3968452,12.3012309 52.6689735,8.79379839 52.6731565,6.83894373 C52.6774589,4.76135045 52.5493422,3.44923031 52.0521731,2.86123221 C51.5720942,2.29319258 51.0654836,2.08978348 49.870007,1.89031828 C48.8908467,1.72682612 46.7595927,1.85936472 45.2113172,2.09026153 C42.117276,2.55133809 40.5718688,3.16706293 38.8175549,3.77334633 C38.5522387,3.86501189 38.4371488,3.66184181 38.2554909,3.24414804 C38.0453891,2.76108131 38.0854256,2.28841211 38.6129507,2.11500048 C40.0390851,1.64723126 41.7806112,1.19272785 42.9202758,0.930160406 C44.7143871,0.516410525 47.218518,-0.0145804406 49.0071317,0.0354950071 C51.4708677,0.104811856 53.2192059,1.41334665 54.1255835,1.84143795 C55.9253118,2.69152544 55.9641531,7.85085022 55.7846464,9.28893581 C55.5807592,10.9234988 55.6621468,10.125638 55.2873578,12.6371786 C55.1343826,13.6605583 54.7901886,15.5574497 54.4334459,16.8564235 C54.15582,17.8672544 53.8252503,19.522971 53.3829371,21.2137046 C53.1730744,22.0157483 52.7007637,22.2553695 51.7645082,22.2340964 C51.0087155,22.2167672 50.5778754,22.1413552 50.5816998,21.5482181" id="Fill-16"></path>
                    <path d="M37.249799,8.66114028 C36.8954465,8.01709114 36.9068001,6.65477604 37.5320859,6.81456332 C39.2232975,7.24635949 39.7562007,6.86977778 42.3144705,6.4965424 C43.909236,6.26361389 45.4256019,6.0107269 46.8825703,5.97690506 C50.1783475,5.90149311 51.8001227,6.24616516 53.6996434,6.88650943 C54.4132484,7.1270867 55.3722111,7.92709875 55.087773,8.62528674 C54.8033349,9.32180156 54.024835,9.40605738 53.310752,9.1714557 C51.6930401,8.64034522 48.4277385,7.74615787 46.2278846,7.84881852 C44.8919816,7.91096466 41.3527589,8.56947472 38.4964267,9.08660232 C37.6274563,9.24411888 37.4117375,8.95573689 37.249799,8.66114028" id="Fill-17"></path>
                    <path d="M37.9607748,13.9806109 C37.7589193,13.2546962 38.0097746,13.1442672 38.7463259,12.9891409 C41.1583132,12.4809767 45.3084803,11.5696992 48.1473638,11.1953882 C50.6344045,10.8672088 51.9476003,10.7510433 54.3911387,11.0865129 C55.1367729,11.1891736 55.193302,12.2555774 54.9547564,12.970019 C54.7157328,13.6845801 54.3600656,13.6899582 53.6172997,13.5639927 C50.7420847,13.076265 48.893476,13.0876186 46.171236,13.5598098 C43.2625576,14.063313 43.3132306,14.1007202 39.2035781,15.1483608 C38.2619445,15.3885795 38.1295255,14.5864162 37.9607748,13.9806109" id="Fill-18"></path>
                    <path d="M40.6525392,21.4927646 C39.6020304,21.587418 39.5152649,21.294136 39.3958726,20.6352674 C39.2616608,19.8942942 39.8890978,18.5395083 40.3896133,19.1019309 C40.7476706,19.5043272 40.9655407,19.5865513 41.3890905,19.5699391 C43.403223,19.4909418 46.1988433,18.6376275 48.6911425,18.3260602 C50.1395061,18.1451194 51.6378257,18.2095362 52.3422283,18.3259407 C53.0652747,18.445572 53.0590601,18.7186565 53.0652747,19.4717004 C53.0706527,20.1667811 52.5218545,20.2904758 51.7691691,20.3158123 C49.9981236,20.3755682 41.1771961,21.445438 40.6525392,21.4927646" id="Fill-19"></path>
                    <path d="M45.8682736,26.0693498 C45.1182175,26.101618 44.8395159,25.2303769 44.657619,24.4322771 C44.475961,23.6344162 44.3687589,21.0131637 44.4018637,20.453729 C44.4347294,19.8942942 44.5957119,19.5385075 45.3697898,19.477676 C46.1456605,19.4252103 46.7588756,19.4446908 46.7579195,20.1734738 C46.7569634,20.9024958 46.9134044,23.4714021 47.1110769,24.5557328 C47.3088689,25.6404219 46.6985221,26.0057695 45.9249222,26.0657645 C45.9063979,26.0671986 45.8869174,26.0685132 45.8682736,26.0693498" id="Fill-20"></path>
                    <path d="M36.3678019,42.0588347 C35.2828737,41.6728116 35.1175889,41.0680818 35.1503351,40.1331409 C35.245347,37.4052839 35.9683934,33.7247982 37.5141591,31.1275676 C38.7597112,29.0357524 41.1395499,26.0700669 45.0822444,23.8580228 C45.7399179,23.4888509 46.5693299,23.7118599 46.9434018,24.3642749 C47.3167567,25.0178849 47.3442444,26.4391194 46.5921566,26.4803509 C44.7005237,26.5834896 43.4957252,27.7340298 42.4652944,28.662039 C40.579398,30.3606603 39.6344181,32.0105209 39.0218006,33.2933606 C38.5326388,34.3186524 37.7335828,36.0053226 37.8939677,38.9983763 C38.0144356,41.2394617 38.4140831,42.7867811 36.3678019,42.0588347" id="Fill-21"></path>
                    <path d="M56.6213486,55.6019128 C55.3190284,55.2923773 52.4536133,53.6165827 50.4295613,51.5924112 C48.4057483,49.5685982 46.3772744,47.0661404 44.850033,43.8180485 C44.0758355,42.1720124 43.8511533,39.7566787 43.8763703,37.6590075 C43.8896361,36.5352379 43.8721874,34.0896678 44.9267596,32.1563253 C45.346246,31.3872668 46.2865649,30.5689694 46.8581899,30.3765554 C47.3650395,30.2061316 48.5032699,30.2752094 48.9601636,30.2834557 C51.8909517,30.3363994 52.658098,30.0309273 52.6976564,29.2413127 C52.7422343,28.3497546 52.6999271,27.9257267 50.5977144,27.2492899 C49.7604147,26.9800298 48.3623655,26.4933777 44.9248474,26.5834896 C44.171684,26.6030896 44.2455423,26.1269545 44.4441709,25.4003227 C44.6422019,24.6736909 45.0374275,23.8678228 45.7720666,24.0319125 C48.1930173,24.5718669 51.1772272,25.2312135 52.0325732,25.5645319 C53.3179227,26.065645 54.4279483,26.809606 55.1604362,27.4975159 C55.8638827,28.1580577 55.5845836,29.1931495 55.3779477,30.4137236 C55.2229409,31.3306182 54.4995359,32.2527713 53.3408689,32.2877882 C51.7298498,32.3366686 50.6565142,32.3675026 48.5375698,32.5471289 C47.5749022,32.6287554 46.4620083,34.1611358 46.3507428,36.2990826 C46.2435407,38.3452443 45.9489441,41.1021427 47.5231536,44.0730867 C48.6931742,46.2822625 49.3932744,47.7761601 52.3262137,50.4788001 C54.1429127,52.152563 55.213858,52.8156145 57.8334373,54.0707275 C58.3480552,54.3173999 58.2039239,55.5821934 57.6889476,55.6376469 C57.3963826,55.669198 57.0492008,55.7036174 56.6213486,55.6019128" id="Fill-22"></path>
                    <path d="M23.2056079,27.8348978 C23.3571488,25.1560406 23.3110173,23.6610674 23.3429269,21.6579299 C23.4078218,17.5994284 23.4301706,14.1153007 23.4924362,13.1804793 C23.5619921,12.1325998 23.6193577,10.9977156 23.7246477,9.34940878 C23.7618158,8.76846188 23.9300885,8.18345158 24.3290189,8.19026375 C25.1997819,8.20568078 25.5164882,8.82391536 25.7105754,9.38418672 C25.8809992,9.87597781 25.7993726,10.9862425 25.7262314,12.0657927 C25.681056,12.7331466 25.6278732,17.6971891 25.5521027,22.0385751 C25.5002346,25.0074874 25.7301753,27.1261927 25.661217,27.6251545 C25.5405101,28.4943639 23.1378447,29.0327646 23.2056079,27.8348978" id="Fill-23"></path>
                    <path d="M17.80714,44.6598897 C17.4691606,44.3503541 17.0089206,43.5833273 18.1281487,43.5477128 C19.3097619,43.5101861 20.5763481,43.4413473 21.6288886,43.2014871 C23.6253333,42.7463861 24.9921899,41.7984185 26.3166198,40.5416323 C28.1186188,38.8317768 28.3605107,38.1517546 29.2947345,34.9049773 C30.1155416,32.052828 29.6112018,30.7632956 28.5535223,30.0977344 C27.781715,29.6117993 26.2334395,28.9211406 24.735598,28.7912313 C23.7057648,28.702434 22.3495448,28.7106803 21.314692,28.9256821 C21.0236808,28.9862745 19.7514776,29.3984708 19.112687,29.5975774 C18.3850991,29.8246499 17.7556304,29.901496 17.6541648,29.4573901 C17.543975,28.975399 18.3690845,28.1930747 19.2153476,27.7998808 C19.9688696,27.4497112 21.6042691,26.9894712 22.2412671,26.9255324 C24.3413286,26.7150721 25.7916044,26.8456985 27.0556808,27.2385338 C28.8842115,27.806693 29.6821918,28.2584476 30.6955324,29.0784181 C31.7049292,29.8951618 32.4601243,31.6827 31.9272211,34.5561224 C31.7697046,35.4048952 30.9043196,37.9495407 30.4021309,38.8042891 C29.5867019,40.1917017 29.0106549,41.4719122 26.8880057,43.1963481 C25.8678529,44.0249235 24.6703446,45.1642295 21.0477027,45.4798602 C20.0618497,45.5657892 18.4270477,45.2274513 17.80714,44.6598897" id="Fill-24"></path>
                    <path d="M31.6706293,60.6459087 C31.035663,60.6447136 30.7036592,60.2680124 30.210434,58.4766499 C29.7928597,56.9599255 29.5016095,53.437315 29.406239,52.3403161 C29.0883376,48.6819401 29.253742,47.4147564 28.6324001,43.8687215 C28.0277898,40.417579 27.437043,38.2174861 25.5874782,36.2409999 C24.6362837,35.2245519 24.0278491,35.104084 23.2624955,34.9762064 C22.234933,34.8044679 21.4024137,34.9459699 20.737928,35.1095816 C19.9238136,35.3100029 18.6439616,35.4077635 18.5292303,35.0621354 C18.3907161,34.6442026 18.8687634,34.4272886 19.4488737,34.0778361 C19.6214487,33.9739804 20.3525025,33.6802203 20.6962184,33.5768426 C21.5457084,33.3212069 22.1828258,33.3354288 22.6137854,33.3270629 C23.3388635,33.3134386 24.5207158,33.4845795 25.4716713,33.9392024 C26.1189472,34.2488575 27.4217455,35.230169 28.0402191,35.9276399 C28.7446217,36.7216763 29.740155,38.0380989 30.5577353,41.0711891 C31.1658114,43.327094 31.2956012,45.8193933 31.3557157,48.4978919 C31.3910911,50.0735356 31.6290392,53.2405985 31.6901097,54.0315277 C31.7631314,54.9701734 31.9986892,56.7082337 32.280259,58.1576729 C32.6534944,60.0796618 32.1274034,60.6471038 31.6706293,60.6459087" id="Fill-25"></path>
                    <path d="M24.2454801,18.1434462 C24.2454801,18.1434462 25.5087199,17.9965662 26.7665817,17.9031079 C28.1501699,17.8004473 29.051528,17.6932452 29.8091133,18.0158076 C30.4323674,18.2812433 30.9874998,19.1631209 30.5234354,19.6568242 C30.139683,20.0648375 29.9742787,19.9591891 29.0583402,19.9858402 C28.7094852,19.9962378 27.705825,20.0417718 27.033093,20.110013 C25.6429317,20.2549808 24.4494868,20.4293486 24.4494868,20.4293486 C24.3812455,20.4411802 24.2454801,18.1434462 24.2454801,18.1434462" id="Fill-26"></path>
                    <path d="M1.48959518,16.3734763 C0.855824061,16.2478694 -0.204484704,15.1789558 0.0571266445,14.5602431 C0.318737993,13.9406939 0.812202251,13.5803658 1.76578697,13.7774408 C2.04616167,13.8352845 3.17471168,13.8887063 4.07810144,13.8091114 C5.41316786,13.6916313 9.36900872,13.2796741 9.36900872,13.2796741 C9.36900872,13.2796741 12.1312852,12.9764727 13.3388325,12.8371219 C14.7677156,12.6721956 15.6301129,12.6139933 16.5742561,13.0131628 C17.5773188,13.4371907 18.0369612,14.2624197 17.6065991,15.014388 C17.2741173,15.5950959 16.6542095,15.6426616 16.1297917,15.5529082 C14.9880954,15.3576259 14.189159,15.3141236 12.5566277,15.4624378 C10.9270842,15.6107519 8.69197432,15.8968632 8.69197432,15.8968632 C8.69197432,15.8968632 5.91989793,16.244045 4.28354224,16.4363395 C3.00237565,16.5868049 2.21252211,16.5166515 1.48959518,16.3734763" id="Fill-27"></path>
                    <path d="M7.64158504,43.9435359 C8.01792772,41.1394303 7.89949152,37.9231286 7.90965003,35.1271498 C7.91407196,33.9687218 8.31443652,29.5558678 8.31479506,27.4782745 C8.31491457,25.4008008 8.31634871,17.4850556 8.31610969,15.5966496 C8.31599018,14.9187786 8.94521985,14.3949583 9.62153717,14.3548024 C10.2990496,14.3158415 10.5482317,14.7744083 10.5582707,15.4520403 C10.6058364,18.7009688 10.5159635,25.2647963 10.5159635,27.4782745 C10.5159635,29.6921113 10.3124349,32.5839385 10.2941496,34.9506309 C10.2759838,37.3191159 10.5070002,41.0980793 10.1232477,44.1130037 C9.97134824,45.3070461 7.45108322,45.3629777 7.64158504,43.9435359" id="Fill-28"></path>
                    <path d="M9.66862482,32.6789504 C8.93637597,32.2049666 8.91450531,31.5374931 9.5904641,31.5391663 C11.0595033,31.5425126 11.5689821,31.4158301 12.3191577,30.3650823 C12.8089171,29.6798016 13.0030043,28.4372373 13.156816,26.7313257 C13.3316618,24.7912905 13.3585519,24.2436874 13.4010981,22.3373546 C13.4235663,21.3340529 13.5356684,20.8319838 13.9641182,20.8327009 C14.6829818,20.833896 15.039844,21.6120374 15.0978073,22.4440786 C15.1826606,23.6633381 15.2647653,25.6155635 15.2994237,26.662726 C15.3309748,27.6117692 15.3494991,27.8870049 15.3184261,29.0902498 C15.292731,30.0891295 14.9836735,30.8491051 14.230271,31.8763091 C13.5913609,32.7469526 12.888751,33.4635454 11.9975514,33.631579 C11.4413435,33.7363909 10.4995904,33.216634 9.66862482,32.6789504" id="Fill-29"></path>
                    <path d="M12.6601249,46.2945722 C11.7762156,46.2945722 11.3214731,46.3338916 9.32359423,46.3338916 C7.99820828,46.3338916 6.47252053,45.9628074 4.79971374,45.0565494 C2.28088287,43.6919636 1.25463497,41.6174776 0.778977968,39.3063582 C0.583098114,38.3554028 0.721373276,36.4606626 0.868731336,34.7610851 C1.01596988,33.0615077 1.37904676,29.9106984 1.37904676,29.9106984 C1.37904676,29.9106984 1.63563861,26.430395 1.72587003,25.463664 C1.79901125,24.679069 2.34948264,24.6539715 2.7022815,24.6650861 C3.33700872,24.6850445 3.68072468,26.1441642 3.66303693,26.7584549 C3.6151127,28.418713 3.4026207,30.645935 3.4026207,30.645935 C3.4026207,30.645935 3.17566778,33.732925 3.12595086,35.1050401 C3.11065335,35.52369 2.93532953,38.4344001 3.28585766,39.4024457 C3.86895578,41.0088039 4.24852528,41.8905621 6.12450214,42.8226347 C7.2555619,43.3846987 9.2068312,43.4080035 10.0896649,43.3683256 C11.042174,43.3254208 11.5555968,43.3288867 12.6217616,43.3288867 C13.6879265,43.3288867 14.5390896,43.5963541 15.3345602,43.9186775 C16.0217531,44.1972595 16.5168905,44.6485361 16.5358929,45.3255705 C16.5546562,46.0024854 16.0094433,46.4761106 15.2290312,46.4340425 C14.3130927,46.3846841 13.516666,46.2850113 12.6601249,46.2945722" id="Fill-30"></path>
                </g>
            </g>
        </g>
    </g>
</svg>